# xmcd
#
# Track frame offsets: 
#        150
#        24452
#        46643
#        70712
#        87711
#        105937
#        125557
#        139473
#        161348
#        180071
#
# Disc length: 2719 seconds
#
# Revision: 0
# Processed by: cddbd v1.5.1PL2 Copyright (c) Steve Scherf et al.
# Submitted via: ExactAudioCopy v0.95a5
#
DISCID=760a9d0a
DTITLE=Roscoe Beck - Walk On
DYEAR=2005
DGENRE=Blues
TTITLE0=Wasn't It Fine
TTITLE1=Outrage
TTITLE2=Say What's On Your Mind
TTITLE3=Together All The Time
TTITLE4=Rockin' Like 2 a.m.
TTITLE5=Come Back Baby
TTITLE6=Cotton
TTITLE7=Think Twice
TTITLE8=Rhumba Nhumba #9
TTITLE9=Blues For a New Day
EXTD=
EXTT0=
EXTT1=
EXTT2=
EXTT3=
EXTT4=
EXTT5=
EXTT6=
EXTT7=
EXTT8=
EXTT9=
PLAYORDER=
